<svg width="73" height="56" viewBox="0 0 73 56" fill="none" xmlns="http://www.w3.org/2000/svg">
<path d="M26.7156 7.08026H16.4975L0 27.2199L16.4975 47.3595H26.7156L10.2181 27.2199L26.7156 7.08026ZM46.2844 7.08026H56.5025L73 27.2199L56.5025 47.3595H46.2844L62.7819 27.2199L46.2844 7.08026ZM41.6863 0.0234021L45.227 0.789733C45.7854 0.911023 46.13 1.42926 46.0052 1.9475L32.6385 55.2544C32.5078 55.7671 31.9494 56.0924 31.391 55.9766L27.8562 55.2103C27.2978 55.089 26.9532 54.5707 27.078 54.0525L40.4447 0.745628C40.5754 0.232903 41.1338 -0.0923746 41.6863 0.0234021Z" fill="#FF2633"/>
</svg>
