<svg width="60" height="51" viewBox="0 0 60 51" fill="none" xmlns="http://www.w3.org/2000/svg">
<path fill-rule="evenodd" clip-rule="evenodd" d="M30.774 0.002125L31.542 0.010625L32.307 0.02125L33.066 0.03825L33.819 0.0595L34.566 0.085L35.307 0.116875L36.045 0.150875L36.771 0.19125L37.494 0.23375L38.211 0.282625L38.919 0.333625L39.618 0.391L40.311 0.4505L40.998 0.516375L41.673 0.584375L42.342 0.656625L43.002 0.733125L43.653 0.813875L44.295 0.898875L44.928 0.986L45.552 1.07737L46.167 1.173L46.77 1.27075L47.364 1.37275L47.946 1.479L48.519 1.58737L49.08 1.7L49.629 1.81475L50.169 1.93375L50.694 2.05487L51.21 2.18025L51.714 2.30775L52.203 2.43737L52.683 2.57125L53.148 2.70725L53.598 2.8475L53.82 2.91763L54.039 2.98775L54.252 3.06L54.462 3.13225L54.669 3.20662L54.873 3.281L55.074 3.35537L55.272 3.42975L55.464 3.50625L55.656 3.58275L55.842 3.65925L56.022 3.73575L56.202 3.81437L56.376 3.893L56.55 3.97162L56.715 4.05237L56.88 4.13312L57.039 4.21387L57.195 4.29462L57.348 4.3775L57.498 4.46037L57.642 4.54325L57.783 4.62612L57.918 4.71112L58.05 4.79612L58.179 4.88112L58.302 4.96612L58.422 5.05325L58.539 5.14037L58.65 5.2275L58.758 5.31462L58.86 5.40175L58.959 5.491L59.055 5.58025L59.145 5.6695L59.232 5.75875L59.313 5.848L59.391 5.93937L59.463 6.03075L59.532 6.12212L59.595 6.2135L59.655 6.30487L59.709 6.39837L59.76 6.48975L59.805 6.58325L59.844 6.67675L59.88 6.77025L59.913 6.86587L59.94 6.95938L59.961 7.055L59.979 7.15062L59.991 7.24625L59.997 7.34187L60 7.4375V43.5625L59.997 43.6581L59.991 43.7537L59.979 43.8494L59.961 43.945L59.94 44.0406L59.913 44.1341L59.88 44.2297L59.844 44.3232L59.805 44.4168L59.76 44.5102L59.709 44.6016L59.655 44.6951L59.595 44.7865L59.532 44.8779L59.463 44.9693L59.391 45.0606L59.313 45.152L59.232 45.2413L59.145 45.3305L59.055 45.4197L58.959 45.509L58.86 45.5983L58.758 45.6854L58.65 45.7725L58.539 45.8596L58.422 45.9467L58.302 46.0339L58.179 46.1189L58.05 46.2039L57.918 46.2889L57.783 46.3739L57.642 46.4567L57.498 46.5396L57.348 46.6225L57.195 46.7054L57.039 46.7861L56.88 46.8669L56.715 46.9476L56.55 47.0284L56.376 47.107L56.202 47.1856L56.022 47.2642L55.842 47.3407L55.656 47.4172L55.464 47.4937L55.272 47.5702L55.074 47.6446L54.873 47.719L54.669 47.7934L54.462 47.8677L54.252 47.94L54.039 48.0122L53.82 48.0824L53.598 48.1525L53.148 48.2927L52.683 48.4288L52.203 48.5626L51.714 48.6922L51.21 48.8197L50.694 48.9451L50.169 49.0662L49.629 49.1852L49.08 49.3L48.519 49.4126L47.946 49.521L47.364 49.6273L46.77 49.7292L46.167 49.827L45.552 49.9226L44.928 50.014L44.295 50.1011L43.653 50.1861L43.002 50.2669L42.342 50.3434L41.673 50.4156L40.998 50.4836L40.311 50.5495L39.618 50.609L38.919 50.6664L38.211 50.7174L37.494 50.7662L36.771 50.8088L36.045 50.8491L35.307 50.8831L34.566 50.915L33.819 50.9405L33.066 50.9617L32.307 50.9788L31.542 50.9894L30.774 50.9979L30 51L29.226 50.9979L28.458 50.9894L27.693 50.9788L26.934 50.9617L26.181 50.9405L25.434 50.915L24.693 50.8831L23.958 50.8491L23.229 50.8088L22.506 50.7662L21.792 50.7174L21.084 50.6664L20.382 50.609L19.689 50.5495L19.005 50.4836L18.327 50.4156L17.658 50.3434L16.998 50.2669L16.347 50.1861L15.705 50.1011L15.072 50.014L14.448 49.9226L13.836 49.827L13.233 49.7292L12.639 49.6273L12.054 49.521L11.484 49.4126L10.923 49.3L10.371 49.1852L9.834 49.0662L9.306 48.9451L8.79 48.8197L8.289 48.6922L7.797 48.5626L7.32 48.4288L6.855 48.2927L6.402 48.1525L6.18 48.0824L5.964 48.0122L5.748 47.94L5.538 47.8677L5.331 47.7934L5.127 47.719L4.926 47.6446L4.728 47.5702L4.536 47.4937L4.347 47.4172L4.161 47.3407L3.978 47.2642L3.798 47.1856L3.624 47.107L3.453 47.0284L3.285 46.9476L3.12 46.8669L2.961 46.7861L2.805 46.7054L2.652 46.6225L2.505 46.5396L2.358 46.4567L2.22 46.3739L2.082 46.2889L1.95 46.2039L1.821 46.1189L1.698 46.0339L1.578 45.9467L1.461 45.8596L1.35 45.7725L1.242 45.6854L1.14 45.5983L1.041 45.509L0.945 45.4197L0.855 45.3305L0.768 45.2413L0.687 45.152L0.609 45.0606L0.537 44.9693L0.468 44.8779L0.405 44.7865L0.345 44.6951L0.291 44.6016L0.24 44.5102L0.195 44.4168L0.156 44.3232L0.12 44.2297L0.0870001 44.1341L0.0599999 44.0406L0.039 43.945L0.0209999 43.8494L0.00900006 43.7537L0.00299978 43.6581L0 43.5625V7.4375L0.00299978 7.34187L0.00900006 7.24625L0.0209999 7.15062L0.039 7.055L0.0599999 6.95938L0.0870001 6.86587L0.12 6.77025L0.156 6.67675L0.195 6.58325L0.24 6.48975L0.291 6.39837L0.345 6.30487L0.405 6.2135L0.468 6.12212L0.537 6.03075L0.609 5.93937L0.687 5.848L0.768 5.75875L0.855 5.6695L0.945 5.58025L1.041 5.491L1.14 5.40175L1.242 5.31462L1.35 5.2275L1.461 5.14037L1.578 5.05325L1.698 4.96612L1.821 4.88112L1.95 4.79612L2.082 4.71112L2.22 4.62612L2.358 4.54325L2.505 4.46037L2.652 4.3775L2.805 4.29462L2.961 4.21387L3.12 4.13312L3.285 4.05237L3.453 3.97162L3.624 3.893L3.798 3.81437L3.978 3.73575L4.161 3.65925L4.347 3.58275L4.536 3.50625L4.728 3.42975L4.926 3.35537L5.127 3.281L5.331 3.20662L5.538 3.13225L5.748 3.06L5.964 2.98775L6.18 2.91763L6.402 2.8475L6.855 2.70725L7.32 2.57125L7.797 2.43737L8.289 2.30775L8.79 2.18025L9.306 2.05487L9.834 1.93375L10.371 1.81475L10.923 1.7L11.484 1.58737L12.054 1.479L12.639 1.37275L13.233 1.27075L13.836 1.173L14.448 1.07737L15.072 0.986L15.705 0.898875L16.347 0.813875L16.998 0.733125L17.658 0.656625L18.327 0.584375L19.005 0.516375L19.689 0.4505L20.382 0.391L21.084 0.333625L21.792 0.282625L22.506 0.23375L23.229 0.19125L23.958 0.150875L24.693 0.116875L25.434 0.085L26.181 0.0595L26.934 0.03825L27.693 0.02125L28.458 0.010625L29.226 0.002125L30 0L30.774 0.002125ZM3 43.5625V43.5837L3.003 43.6284L3.012 43.673L3.024 43.7197L3.039 43.7644L3.057 43.8111L3.078 43.8579L3.105 43.9068L3.135 43.9535L3.168 44.0024L3.204 44.0512L3.243 44.1001L3.288 44.149L3.336 44.2L3.387 44.2489L3.441 44.2999L3.498 44.3509L3.561 44.4019L3.627 44.455L3.696 44.506L3.768 44.5591L3.924 44.6632L4.092 44.7695L4.275 44.8779L4.473 44.9862L4.683 45.0946L4.908 45.203L5.145 45.3135L5.397 45.424L5.661 45.5345L5.937 45.645L6.228 45.7555L6.534 45.8639L6.849 45.9744L7.179 46.0849L7.521 46.1933L7.878 46.3016L8.247 46.41L8.628 46.5162L9.021 46.6225L9.426 46.7287L9.843 46.8307L10.275 46.9349L10.716 47.0348L11.172 47.1346L11.637 47.2345L12.117 47.3301L12.606 47.4257L13.107 47.5171L13.62 47.6085L14.148 47.6956L14.682 47.7827L15.231 47.8656L15.792 47.9485L16.362 48.0271L16.944 48.1015L17.535 48.1759L18.141 48.246L18.753 48.3119L19.38 48.3756L20.016 48.4373L20.664 48.4946L21.321 48.5478L21.987 48.5987L22.665 48.6434L23.355 48.6859L24.054 48.7241L24.762 48.7581L25.482 48.79L26.211 48.8155L26.949 48.8367L27.696 48.8537L28.455 48.8644L29.223 48.8729L30 48.875L30.78 48.8729L31.551 48.8644L32.313 48.8537L33.063 48.8367L33.804 48.8134L34.536 48.7879L35.259 48.7581L35.97 48.7241L36.669 48.6859L37.362 48.6412L38.04 48.5966L38.712 48.5456L39.372 48.4904L40.02 48.433L40.656 48.3735L41.286 48.3076L41.901 48.2417L42.507 48.1695L43.101 48.0973L43.683 48.0207L44.256 47.9421L44.817 47.8592L45.366 47.7742L45.903 47.6892L46.428 47.6L46.944 47.5086L47.448 47.4151L47.937 47.3195L48.417 47.2217L48.882 47.124L49.338 47.0241L49.782 46.9221L50.211 46.818L50.628 46.7139L51.036 46.6076L51.429 46.5014L51.807 46.3951L52.176 46.2867L52.53 46.1762L52.872 46.0679L53.202 45.9574L53.52 45.8469L53.823 45.7364L54.111 45.6259L54.387 45.5154L54.651 45.4027L54.9 45.2944L55.137 45.1839L55.359 45.0734L55.569 44.965L55.764 44.8566L55.944 44.7482L56.112 44.642L56.265 44.5358L56.334 44.4847L56.403 44.4316L56.466 44.3806L56.526 44.3296L56.583 44.2786L56.637 44.2276L56.688 44.1766L56.733 44.1278L56.775 44.0767L56.814 44.0279L56.85 43.979L56.88 43.9301L56.91 43.8834L56.934 43.8366L56.952 43.7899L56.97 43.7431L56.982 43.6964L56.994 43.6517L56.997 43.6071L57 43.5625V34.7926L56.769 34.9095L56.529 35.0221L56.28 35.1369L56.025 35.2495L55.764 35.36L55.494 35.4705L55.215 35.5789L54.93 35.6851L54.639 35.7914L54.339 35.8955L54.033 35.9996L53.718 36.1016L53.4 36.2015L53.073 36.3014L52.74 36.3991L52.398 36.4947L52.053 36.5904L51.699 36.6839L51.339 36.7752L50.973 36.8645L50.601 36.9537L50.223 37.0409L49.839 37.1259L49.449 37.2109L49.053 37.2916L48.651 37.3724L48.246 37.451L47.832 37.5296L47.415 37.604L46.989 37.6784L46.56 37.7506L46.128 37.8207L45.687 37.8887L45.243 37.9546L44.793 38.0184L44.34 38.0821L43.881 38.1437L43.419 38.2011L42.951 38.2585L42.477 38.3137L42 38.3669L41.517 38.4179L41.031 38.4667L40.542 38.5135L40.047 38.5581L39.549 38.6006L39.048 38.641L38.541 38.6792L38.034 38.7154L37.521 38.7494L37.002 38.7812L36.483 38.811L35.958 38.8386L35.433 38.8641L34.902 38.8875L34.368 38.9087L33.831 38.9257L33.294 38.9427L32.751 38.9555L32.205 38.9661L31.659 38.9746L31.107 38.981L30.555 38.9853H29.445L28.893 38.981L28.341 38.9746L27.795 38.9661L27.249 38.9555L26.706 38.9427L26.169 38.9257L25.632 38.9087L25.098 38.8875L24.57 38.8641L24.042 38.8386L23.517 38.811L22.998 38.7812L22.482 38.7494L21.969 38.7154L21.459 38.6792L20.952 38.641L20.451 38.6006L19.953 38.5581L19.458 38.5135L18.969 38.4667L18.483 38.4179L18 38.3669L17.523 38.3137L17.052 38.2585L16.584 38.2011L16.119 38.1437L15.66 38.0821L15.207 38.0184L14.757 37.9546L14.313 37.8887L13.875 37.8207L13.44 37.7506L13.011 37.6784L12.588 37.604L12.168 37.5296L11.757 37.451L11.349 37.3724L10.947 37.2916L10.551 37.2109L10.161 37.1259L9.777 37.0409L9.399 36.9537L9.027 36.8645L8.661 36.7752L8.301 36.6817L7.95 36.5904L7.602 36.4947L7.263 36.3991L6.927 36.3014L6.6 36.2015L6.282 36.1016L5.967 35.9996L5.661 35.8955L5.361 35.7914L5.07 35.6851L4.785 35.5789L4.506 35.4684L4.236 35.36L3.975 35.2495L3.72 35.1369L3.471 35.0221L3.231 34.9074L3 34.7926V43.5625ZM3 31.5477V31.5711L3.003 31.6158L3.012 31.6604L3.024 31.705L3.039 31.7517L3.057 31.7985L3.078 31.8452L3.105 31.892L3.135 31.9387L3.168 31.9876L3.204 32.0365L3.243 32.0854L3.288 32.1364L3.336 32.1852L3.387 32.2362L3.441 32.2872L3.498 32.3383L3.561 32.3892L3.627 32.4402L3.696 32.4934L3.768 32.5444L3.924 32.6506L4.092 32.7569L4.275 32.8631L4.473 32.9715L4.683 33.0799L4.908 33.1904L5.145 33.2987L5.397 33.4092L5.661 33.5198L5.937 33.6302L6.228 33.7407L6.534 33.8512L6.849 33.9617L7.179 34.0701L7.521 34.1785L7.878 34.289L8.247 34.3953L8.628 34.5036L9.021 34.6099L9.426 34.714L9.843 34.8181L10.275 34.9201L10.716 35.0221L11.172 35.122L11.637 35.2197L12.117 35.3154L12.606 35.411L13.107 35.5045L13.62 35.5937L14.148 35.683L14.682 35.768L15.231 35.853L15.792 35.9337L16.362 36.0124L16.944 36.0889L17.535 36.1611L18.141 36.2312L18.753 36.2993L19.38 36.363L20.016 36.4225L20.664 36.4799L21.321 36.533L21.987 36.584L22.665 36.6308L23.355 36.6732L24.054 36.7115L24.762 36.7455L25.482 36.7752L26.211 36.8007L26.949 36.822L27.696 36.839L28.455 36.8517L29.223 36.8581L30 36.8603L30.78 36.8581L31.551 36.8517L32.313 36.839L33.063 36.822L33.804 36.8007L34.536 36.7752L35.259 36.7434L35.97 36.7094L36.669 36.6711L37.362 36.6286L38.04 36.5819L38.712 36.5309L39.372 36.4777L40.02 36.4204L40.656 36.3588L41.286 36.295L41.901 36.227L42.507 36.1569L43.101 36.0825L43.683 36.006L44.256 35.9274L44.817 35.8445L45.366 35.7616L45.903 35.6745L46.428 35.5853L46.944 35.4939L47.448 35.4004L47.937 35.3047L48.417 35.2091L48.882 35.1092L49.338 35.0094L49.782 34.9074L50.211 34.8054L50.628 34.6991L51.036 34.595L51.429 34.4887L51.807 34.3804L52.176 34.272L52.53 34.1636L52.872 34.0531L53.202 33.9426L53.52 33.8321L53.823 33.7216L54.111 33.6111L54.387 33.5006L54.651 33.3901L54.9 33.2796L55.137 33.1691L55.359 33.0607L55.569 32.9502L55.764 32.8419L55.944 32.7356L56.112 32.6272L56.265 32.5231L56.334 32.47L56.403 32.419L56.466 32.3659L56.526 32.3149L56.583 32.2639L56.637 32.2129L56.688 32.1619L56.733 32.113L56.775 32.0641L56.814 32.0131L56.85 31.9664L56.88 31.9175L56.91 31.8686L56.934 31.8219L56.952 31.7751L56.97 31.7284L56.982 31.6837L56.994 31.637L56.997 31.5924L57 31.5477V22.7524L56.769 22.8671L56.529 22.9819L56.28 23.0966L56.025 23.2071L55.764 23.3197L55.494 23.4281L55.215 23.5365L54.93 23.6449L54.639 23.7511L54.339 23.8552L54.033 23.9594L53.718 24.0614L53.4 24.1612L53.073 24.2611L52.74 24.3589L52.398 24.4545L52.053 24.548L51.699 24.6415L51.339 24.735L50.973 24.8242L50.601 24.9135L50.223 25.0006L49.839 25.0856L49.449 25.1685L49.053 25.2514L48.651 25.3321L48.246 25.4107L47.832 25.4873L47.415 25.5637L46.989 25.6381L46.56 25.7082L46.128 25.7784L45.687 25.8485L45.243 25.9144L44.793 25.9781L44.34 26.0419L43.881 26.1014L43.419 26.1609L42.951 26.2182L42.477 26.2735L42 26.3266L41.517 26.3776L41.031 26.4265L40.542 26.4732L40.047 26.5179L39.549 26.5604L39.048 26.6007L38.541 26.639L38.034 26.6751L37.521 26.7091L37.002 26.741L36.483 26.7707L35.958 26.7984L35.433 26.8239L34.902 26.8472L34.368 26.8664L33.831 26.8855L33.294 26.9004L32.751 26.9153L32.205 26.9259L31.659 26.9344L31.107 26.9408L30.555 26.945H29.445L28.893 26.9408L28.341 26.9344L27.795 26.9259L27.249 26.9153L26.706 26.9004L26.169 26.8855L25.632 26.8664L25.098 26.8472L24.57 26.8239L24.042 26.7984L23.517 26.7707L22.998 26.741L22.482 26.7091L21.969 26.6751L21.459 26.639L20.952 26.6007L20.451 26.5604L19.953 26.5179L19.458 26.4732L18.969 26.4265L18.483 26.3776L18 26.3266L17.523 26.2735L17.052 26.2182L16.584 26.1609L16.119 26.1014L15.66 26.0419L15.207 25.9781L14.757 25.9144L14.313 25.8485L13.875 25.7784L13.44 25.7082L13.011 25.6381L12.588 25.5637L12.168 25.4873L11.757 25.4107L11.349 25.3321L10.947 25.2514L10.551 25.1685L10.161 25.0856L9.777 25.0006L9.399 24.9135L9.027 24.8242L8.661 24.7329L8.301 24.6415L7.95 24.548L7.602 24.4545L7.263 24.3567L6.927 24.259L6.6 24.1612L6.282 24.0614L5.967 23.9594L5.661 23.8552L5.361 23.7511L5.07 23.6449L4.785 23.5365L4.506 23.4281L4.236 23.3197L3.975 23.2071L3.72 23.0966L3.471 22.9819L3.231 22.8671L3 22.7524V31.5477ZM3 19.5075V19.5309L3.003 19.5734L3.012 19.6201L3.024 19.6647L3.039 19.7115L3.057 19.7561L3.078 19.8029L3.105 19.8517L3.135 19.8985L3.168 19.9474L3.204 19.9962L3.243 20.0451L3.288 20.094L3.336 20.145L3.387 20.196L3.441 20.2449L3.498 20.2959L3.561 20.349L3.627 20.4L3.696 20.451L3.768 20.5041L3.924 20.6104L4.092 20.7166L4.275 20.8229L4.473 20.9312L4.683 21.0396L4.908 21.1501L5.145 21.2585L5.397 21.369L5.661 21.4795L5.937 21.59L6.228 21.7005L6.534 21.811L6.849 21.9194L7.179 22.0299L7.521 22.1382L7.878 22.2466L8.247 22.355L8.628 22.4612L9.021 22.5675L9.426 22.6737L9.843 22.7779L10.275 22.8799L10.716 22.9819L11.172 23.0817L11.637 23.1795L12.117 23.2751L12.606 23.3708L13.107 23.4621L13.62 23.5535L14.148 23.6427L14.682 23.7278L15.231 23.8128L15.792 23.8935L16.362 23.9721L16.944 24.0486L17.535 24.1209L18.141 24.191L18.753 24.259L19.38 24.3227L20.016 24.3822L20.664 24.4396L21.321 24.4927L21.987 24.5437L22.665 24.5884L23.355 24.6309L24.054 24.6691L24.762 24.7052L25.482 24.735L26.211 24.7605L26.949 24.7817L27.696 24.7987L28.455 24.8115L29.223 24.8179L30 24.82L30.78 24.8179L31.551 24.8115L32.313 24.7987L33.063 24.7817L33.804 24.7605L34.536 24.7329L35.259 24.7031L35.97 24.6691L36.669 24.6309L37.362 24.5884L38.04 24.5416L38.712 24.4906L39.372 24.4375L40.02 24.3801L40.656 24.3185L41.286 24.2547L41.901 24.1867L42.507 24.1166L43.101 24.0422L43.683 23.9657L44.256 23.8871L44.817 23.8042L45.366 23.7214L45.903 23.6342L46.428 23.545L46.944 23.4536L47.448 23.3601L47.937 23.2645L48.417 23.1689L48.882 23.069L49.338 22.9691L49.782 22.8671L50.211 22.763L50.628 22.6589L51.036 22.5547L51.429 22.4464L51.807 22.3401L52.176 22.2317L52.53 22.1212L52.872 22.0129L53.202 21.9024L53.52 21.7919L53.823 21.6814L54.111 21.5709L54.387 21.4604L54.651 21.3499L54.9 21.2394L55.137 21.1289L55.359 21.0184L55.569 20.91L55.764 20.8016L55.944 20.6932L56.112 20.587L56.265 20.4829L56.334 20.4297L56.403 20.3766L56.466 20.3256L56.526 20.2746L56.583 20.2236L56.637 20.1726L56.688 20.1216L56.733 20.0727L56.775 20.0217L56.814 19.9729L56.85 19.924L56.88 19.8773L56.91 19.8284L56.934 19.7816L56.952 19.7349L56.97 19.6881L56.982 19.6414L56.994 19.5967L56.997 19.5521L57 19.5075V10.6824L56.769 10.7971L56.529 10.9119L56.28 11.0245L56.025 11.1371L55.764 11.2497L55.494 11.3581L55.215 11.4665L54.93 11.5749L54.639 11.6811L54.339 11.7852L54.033 11.8872L53.718 11.9892L53.4 12.0912L53.073 12.189L52.74 12.2867L52.398 12.3845L52.053 12.478L51.699 12.5715L51.339 12.6629L50.973 12.7542L50.601 12.8435L50.223 12.9306L49.839 13.0156L49.449 13.0985L49.053 13.1814L48.651 13.2621L48.246 13.3407L47.832 13.4173L47.415 13.4937L46.989 13.566L46.56 13.6382L46.128 13.7084L45.687 13.7764L45.243 13.8444L44.793 13.9081L44.34 13.9719L43.881 14.0314L43.419 14.0909L42.951 14.1482L42.477 14.2035L42 14.2545L41.517 14.3055L41.031 14.3544L40.542 14.4032L40.047 14.4479L39.549 14.4904L39.048 14.5308L38.541 14.569L38.034 14.6051L37.521 14.6391L37.002 14.671L36.483 14.7007L35.958 14.7284L35.433 14.7539L34.902 14.7751L34.368 14.7964L33.831 14.8155L33.294 14.8304L32.751 14.8431L32.205 14.8559L31.659 14.8644L31.107 14.8708L30.555 14.8729L30 14.875L29.445 14.8729L28.893 14.8708L28.341 14.8644L27.795 14.8559L27.249 14.8431L26.706 14.8304L26.169 14.8155L25.632 14.7964L25.098 14.7751L24.57 14.7539L24.042 14.7284L23.517 14.7007L22.998 14.671L22.482 14.6391L21.969 14.6051L21.459 14.569L20.952 14.5308L20.451 14.4904L19.953 14.4479L19.458 14.4032L18.969 14.3544L18.483 14.3055L18 14.2545L17.523 14.2035L17.052 14.1482L16.584 14.0909L16.119 14.0314L15.66 13.9719L15.207 13.9081L14.757 13.8444L14.313 13.7764L13.875 13.7084L13.44 13.6382L13.011 13.566L12.588 13.4937L12.168 13.4173L11.757 13.3407L11.349 13.2621L10.947 13.1814L10.551 13.0985L10.161 13.0156L9.777 12.9285L9.399 12.8414L9.027 12.7542L8.661 12.6629L8.301 12.5715L7.95 12.478L7.602 12.3845L7.263 12.2867L6.927 12.189L6.6 12.0912L6.282 11.9892L5.967 11.8872L5.661 11.7852L5.361 11.679L5.07 11.5749L4.785 11.4665L4.506 11.3581L4.236 11.2476L3.975 11.1371L3.72 11.0245L3.471 10.9119L3.231 10.7971L3 10.6824V19.5075ZM29.22 2.12713L28.449 2.13562L27.687 2.14625L26.937 2.16325L26.196 2.18662L25.464 2.21212L24.741 2.24187L24.03 2.27587L23.331 2.31412L22.638 2.35875L21.96 2.4055L21.288 2.45437L20.628 2.50962L19.98 2.567L19.344 2.6265L18.714 2.69237L18.099 2.76037L17.493 2.8305L16.899 2.90275L16.317 2.97925L15.744 3.06L15.183 3.14075L14.634 3.22575L14.097 3.31287L13.572 3.40212L13.056 3.4935L12.552 3.58488L12.063 3.6805L11.583 3.77825L11.118 3.876L10.662 3.978L10.218 4.08L9.789 4.182L9.372 4.28612L8.964 4.39237L8.571 4.49863L8.193 4.607L7.824 4.71537L7.47 4.82375L7.128 4.93425L6.798 5.04475L6.48 5.15525L6.177 5.26575L5.889 5.37625L5.613 5.48675L5.349 5.59725L5.1 5.70775L4.863 5.81825L4.641 5.92662L4.431 6.03712L4.236 6.1455L4.056 6.25175L3.888 6.358L3.735 6.46425L3.666 6.51737L3.597 6.56837L3.534 6.61937L3.474 6.6725L3.417 6.7235L3.363 6.7745L3.312 6.82337L3.267 6.87437L3.225 6.92325L3.186 6.97212L3.15 7.021L3.12 7.06987L3.09 7.11662L3.066 7.16338L3.048 7.21225L3.03 7.25687L3.018 7.30362L3.006 7.34825L3.003 7.39287L3 7.4375L3.003 7.48212L3.006 7.52675L3.018 7.57137L3.03 7.61812L3.048 7.66275L3.066 7.71162L3.09 7.75837L3.12 7.80512L3.15 7.854L3.186 7.90287L3.225 7.95175L3.267 8.00062L3.312 8.05162L3.363 8.1005L3.417 8.1515L3.474 8.2025L3.534 8.25562L3.597 8.30662L3.666 8.35762L3.735 8.41075L3.888 8.517L4.056 8.62325L4.236 8.7295L4.431 8.83787L4.641 8.94837L4.863 9.05675L5.1 9.16725L5.349 9.27775L5.613 9.38825L5.889 9.49875L6.177 9.60925L6.48 9.71975L6.798 9.83025L7.128 9.94075L7.47 10.0512L7.824 10.1596L8.193 10.268L8.571 10.3764L8.964 10.4826L9.372 10.5889L9.789 10.693L10.218 10.795L10.662 10.897L11.118 10.999L11.583 11.0967L12.063 11.1945L12.552 11.2901L13.056 11.3815L13.572 11.4729L14.097 11.5621L14.634 11.6492L15.183 11.7342L15.744 11.815L16.317 11.8957L16.899 11.9722L17.493 12.0445L18.099 12.1146L18.714 12.1826L19.344 12.2485L19.98 12.308L20.628 12.3654L21.288 12.4206L21.96 12.4695L22.638 12.5162L23.331 12.5609L24.03 12.5991L24.741 12.6331L25.464 12.6629L26.196 12.6884L26.937 12.7117L27.687 12.7287L28.449 12.7394L29.22 12.7479L30 12.75L30.78 12.7479L31.551 12.7394L32.313 12.7287L33.063 12.7117L33.804 12.6884L34.536 12.6629L35.259 12.6331L35.97 12.5991L36.669 12.5609L37.362 12.5162L38.04 12.4695L38.712 12.4206L39.372 12.3654L40.02 12.308L40.656 12.2485L41.286 12.1826L41.901 12.1146L42.507 12.0445L43.101 11.9722L43.683 11.8957L44.256 11.815L44.817 11.7342L45.366 11.6492L45.903 11.5621L46.428 11.4729L46.944 11.3815L47.448 11.2901L47.937 11.1945L48.417 11.0967L48.882 10.999L49.338 10.897L49.782 10.795L50.211 10.693L50.628 10.5889L51.036 10.4826L51.429 10.3764L51.807 10.268L52.176 10.1596L52.53 10.0512L52.872 9.94075L53.202 9.83025L53.52 9.71975L53.823 9.60925L54.111 9.49875L54.387 9.38825L54.651 9.27775L54.9 9.16725L55.137 9.05675L55.359 8.94837L55.569 8.83787L55.764 8.7295L55.944 8.62325L56.112 8.517L56.265 8.41075L56.334 8.35762L56.403 8.30662L56.466 8.25562L56.526 8.2025L56.583 8.1515L56.637 8.1005L56.688 8.05162L56.733 8.00062L56.775 7.95175L56.814 7.90287L56.85 7.854L56.88 7.80512L56.91 7.75837L56.934 7.71162L56.952 7.66275L56.97 7.61812L56.982 7.57137L56.994 7.52675L56.997 7.48212L57 7.4375L56.997 7.39287L56.994 7.34825L56.982 7.30362L56.97 7.25687L56.952 7.21225L56.934 7.16338L56.91 7.11662L56.88 7.06987L56.85 7.021L56.814 6.97212L56.775 6.92325L56.733 6.87437L56.688 6.82337L56.637 6.7745L56.583 6.7235L56.526 6.6725L56.466 6.61937L56.403 6.56837L56.334 6.51737L56.265 6.46425L56.112 6.358L55.944 6.25175L55.764 6.1455L55.569 6.03712L55.359 5.92662L55.137 5.81825L54.9 5.70775L54.651 5.59725L54.387 5.48675L54.111 5.37625L53.823 5.26575L53.52 5.15525L53.202 5.04475L52.872 4.93425L52.53 4.82375L52.176 4.71537L51.807 4.607L51.429 4.49863L51.036 4.39237L50.628 4.28612L50.211 4.182L49.782 4.08L49.338 3.978L48.882 3.876L48.417 3.77825L47.937 3.6805L47.448 3.58488L46.944 3.4935L46.428 3.40212L45.903 3.31287L45.366 3.22575L44.817 3.14075L44.256 3.06L43.683 2.97925L43.101 2.90275L42.507 2.8305L41.901 2.76037L41.286 2.69237L40.656 2.6265L40.02 2.567L39.372 2.50962L38.712 2.45437L38.04 2.4055L37.362 2.35875L36.669 2.31412L35.97 2.27587L35.259 2.24187L34.536 2.21212L33.804 2.18662L33.063 2.16325L32.313 2.14625L31.551 2.13562L30.78 2.12713L30 2.125L29.22 2.12713Z" fill="#0094FF"/>
</svg>
