<svg width="46" height="44" viewBox="0 0 46 44" fill="none" xmlns="http://www.w3.org/2000/svg">
<path d="M22.9375 0C10.3516 0 0 8.86328 0 19.9375C0 26.3633 3.5625 32.0312 8.9375 35.6562C8.92969 35.8711 8.9375 36.2031 8.65625 37.25C8.30859 38.543 7.62109 40.375 6.1875 42.4062L5.15625 43.8438L6.9375 43.875C13.1133 43.9023 16.6914 39.8438 17.25 39.1875C19.0742 39.5938 20.9727 39.875 22.9375 39.875C35.5195 39.875 45.875 31.0117 45.875 19.9375C45.875 8.86328 35.5195 0 22.9375 0ZM22.9375 1.875C34.6523 1.875 44 10.0273 44 19.9375C44 29.8477 34.6523 38 22.9375 38C20.9336 38 18.9883 37.7578 17.1562 37.3125L16.5938 37.1875L16.2188 37.6562C16.2188 37.6562 13.3281 40.9141 8.71875 41.6875C9.55078 40.1953 10.1836 38.8086 10.4688 37.75C10.8672 36.2695 10.875 35.25 10.875 35.25V34.75L10.4375 34.4688C5.21094 31.1562 1.875 25.8789 1.875 19.9375C1.875 10.0273 11.2188 1.875 22.9375 1.875Z" fill="#C2C602"/>
</svg>
