<svg width="123" height="94" viewBox="0 0 123 94" fill="none" xmlns="http://www.w3.org/2000/svg">
<path fill-rule="evenodd" clip-rule="evenodd" d="M115.645 35.41L118.645 38.41C119.435 39.2 119.435 40.49 118.645 41.28L116.225 43.7C116.895 44.94 117.395 46.29 117.725 47.7H120.855C121.975 47.7 122.885 48.61 122.885 49.73V53.97C122.885 55.09 121.975 56 120.855 56H117.435C117.015 57.38 116.415 58.69 115.665 59.88L117.885 62.09C118.675 62.88 118.675 64.17 117.885 64.96L114.885 67.96C114.095 68.75 112.805 68.75 112.015 67.96L109.595 65.54C108.355 66.21 107.015 66.72 105.595 67.04V70.17C105.595 71.29 104.685 72.2 103.565 72.2H99.3247C98.2047 72.2 97.2947 71.29 97.2947 70.17V66.75C95.9147 66.33 94.6047 65.73 93.4147 64.98L91.2047 67.2C90.4147 67.99 89.1247 67.99 88.3347 67.2L85.3347 64.2C84.5447 63.41 84.5447 62.12 85.3347 61.33L87.7547 58.91C87.0847 57.67 86.5747 56.32 86.2547 54.91H83.1247C82.0047 54.91 81.0947 54 81.0947 52.88V48.64C81.0947 47.52 82.0047 46.61 83.1247 46.61H86.5447C86.9647 45.23 87.5647 43.92 88.3147 42.73L86.1047 40.52C85.3147 39.73 85.3147 38.44 86.1047 37.65L89.1047 34.65C89.8947 33.86 91.1847 33.86 91.9747 34.65L94.3947 37.07C95.6347 36.4 96.9847 35.89 98.3947 35.57V32.44C98.3947 31.32 99.3047 30.41 100.425 30.41H104.665C105.785 30.41 106.695 31.32 106.695 32.44V35.85C108.075 36.27 109.385 36.87 110.575 37.62L112.785 35.41C113.565 34.62 114.855 34.62 115.645 35.41ZM3.50469 70.32C6.43469 67.24 7.62469 66.85 11.5647 66.13C11.5647 44.92 11.5647 24.23 11.5647 3.03C2.36469 3.93 3.43469 12.44 3.48469 20.35C3.49469 21.41 3.50469 21.97 3.50469 22.23V70.32V70.32ZM29.1747 26.62H45.5747H46.8447V27.89V79.11V80.38H45.5747H29.1747H27.9047V79.11V27.89V26.62H29.1747ZM32.4847 72.19H35.8947V73.97H32.4847V72.19V72.19ZM32.4847 67.23H35.8947V69.01H32.4847V67.23V67.23ZM32.4847 62.21H35.8947V63.99H32.4847V62.21V62.21ZM32.4847 57.2H38.1447V58.98H32.4847V57.2V57.2ZM32.4847 52.19H35.8947V53.97H32.4847V52.19V52.19ZM32.4847 47.17H35.8947V48.95H32.4847V47.17V47.17ZM32.4847 42.16H35.8947V43.94H32.4847V42.16V42.16ZM32.4847 37.15H35.8947V38.93H32.4847V37.15V37.15ZM32.4847 32.18H38.1447V33.96H32.4847V32.18V32.18ZM44.2947 29.15H30.4447V77.83H44.2947V29.15ZM70.4947 38.22V80.02H58.7947V38.22H58.7447L59.1447 37.41L63.9747 27.48L64.4647 26.47L64.9747 27.47L70.1247 37.4L70.5547 38.23H70.4947V38.22ZM60.5547 37.08H68.7047L65.4647 30.84H63.5947L60.5547 37.08ZM15.0247 12.09H101.255C101.925 12.09 102.525 12.36 102.955 12.8C103.395 13.24 103.665 13.84 103.665 14.5V21.49H99.1947V16.04H15.0247V67.86H15.0147C15.0147 68.58 14.4947 69.2 13.7647 69.31C0.624686 71.34 0.0446863 86.91 13.3747 89.14H99.1947V82.6H103.665V91.2C103.665 91.86 103.395 92.46 102.955 92.9L102.945 92.91C102.505 93.35 101.905 93.62 101.245 93.62H13.2747C9.67469 93.62 4.67469 90.8 2.59469 87.82C0.554687 84.92 -0.175313 81.19 0.0346868 76.85V22.23C0.0346868 20.72 0.0346868 20.56 0.0346868 20.36C-0.0253132 10.69 -0.095314 0.24 13.3747 0.01C13.4347 0 13.4847 0 13.5447 0C14.3647 0 15.0247 0.66 15.0247 1.48V12.09ZM101.985 42.97C106.595 42.97 110.325 46.71 110.325 51.31C110.325 55.91 106.585 59.65 101.985 59.65C97.3747 59.65 93.6447 55.91 93.6447 51.31C93.6447 46.71 97.3747 42.97 101.985 42.97Z" fill="#EAB90C"/>
</svg>
