<svg width="126" height="77" viewBox="0 0 126 77" fill="none" xmlns="http://www.w3.org/2000/svg">
<path d="M86.2998 76.1C85.1998 76.1 84.3998 75.2 84.3998 74.2V49.5C84.3998 41.8 78.0998 35.5 70.2998 35.5H54.6998C46.8998 35.5 40.5998 41.8 40.5998 49.5V74.2C40.5998 75.3 39.6998 76.1 38.6998 76.1C37.5998 76.1 36.7998 75.2 36.7998 74.2V49.5C36.7998 39.6 44.8998 31.6 54.7998 31.6H70.3998C80.2998 31.6 88.3998 39.6 88.3998 49.5V74.2C88.2998 75.3 87.3998 76.1 86.2998 76.1Z" fill="#FF8946"/>
<path d="M62.5002 29.4C54.3002 29.4 47.7002 22.8 47.7002 14.7C47.7002 6.6 54.4002 0 62.5002 0C70.7002 0 77.3002 6.6 77.3002 14.7C77.3002 22.8 70.7002 29.4 62.5002 29.4ZM62.5002 3.7C56.5002 3.7 51.6002 8.6 51.6002 14.6C51.6002 20.6 56.5002 25.5 62.5002 25.5C68.5002 25.5 73.4002 20.6 73.4002 14.6C73.4002 8.6 68.5002 3.7 62.5002 3.7Z" fill="#FF8946"/>
<path d="M20.3004 38.7C13.8004 38.7 8.40039 33.4 8.40039 26.9C8.40039 20.4 13.7004 15.1 20.3004 15.1C26.8004 15.1 32.2004 20.4 32.2004 26.9C32.2004 33.4 26.8004 38.7 20.3004 38.7ZM20.3004 18.9C15.9004 18.9 12.3004 22.5 12.3004 26.9C12.3004 31.3 15.9004 34.9 20.3004 34.9C24.7004 34.9 28.3004 31.3 28.3004 26.9C28.3004 22.5 24.7004 18.9 20.3004 18.9Z" fill="#FF8946"/>
<path d="M1.9 76.1C0.800002 76.1 0 75.2 0 74.2V54.5C0 46.7 6.4 40.3 14.3 40.3H26.3C29 40.3 31.7 41.1 34 42.5C34.9 43.1 35.2 44.3 34.6 45.2C34 46.1 32.8 46.4 31.9 45.8C30.2 44.7 28.3 44.2 26.3 44.2H14.3C8.6 44.2 3.9 48.9 3.9 54.6V74.3C3.9 75.3 3 76.1 1.9 76.1Z" fill="#FF8946"/>
<path d="M104.7 38.7C98.1998 38.7 92.7998 33.4 92.7998 26.9C92.7998 20.4 98.0998 15.1 104.7 15.1C111.3 15.1 116.6 20.4 116.6 26.9C116.6 33.4 111.2 38.7 104.7 38.7ZM104.7 18.9C100.3 18.9 96.6998 22.5 96.6998 26.9C96.6998 31.3 100.3 34.9 104.7 34.9C109.1 34.9 112.7 31.3 112.7 26.9C112.7 22.5 109.1 18.9 104.7 18.9Z" fill="#FF8946"/>
<path d="M123.1 76.1C122 76.1 121.2 75.2 121.2 74.2V54.5C121.2 48.8 116.5 44.1 110.8 44.1H98.7997C96.7997 44.1 94.8997 44.7 93.1997 45.7C92.2997 46.3 91.0997 46 90.4997 45.1C89.8997 44.2 90.1997 43 91.0997 42.4C93.3997 40.9 96.0997 40.2 98.7997 40.2H110.8C118.7 40.2 125.1 46.6 125.1 54.4V74.1C125 75.3 124.1 76.1 123.1 76.1Z" fill="#FF8946"/>
</svg>
