<svg width="227" height="264" viewBox="0 0 227 264" fill="none" xmlns="http://www.w3.org/2000/svg">
<path d="M90.6765 13.0148L58.292 35.0399L45.9551 141.876L53.3572 184.496L78.3396 189.788L154.674 190.503L155.446 165.331L157.45 190.074L175.956 185.497L184.129 179.776L179.657 70.2229L173.18 43.1921C173.18 43.1921 150.665 13.1579 149.431 13.5869C148.198 14.016 90.6765 13.0148 90.6765 13.0148Z" fill="#221B23"/>
<path d="M218.673 234.696L211.579 214.387L157.759 195.222L141.104 181.349L138.945 109.124H88.0551L85.8961 181.349L69.2413 195.222L15.4213 214.387L8.32753 234.696L3.70117 263.3H223.299L218.673 234.696Z" fill="#DE9A69"/>
<path d="M88.0551 109.124L85.8961 181.349L69.2413 195.222L15.4213 214.387L8.32753 234.696L3.70117 263.3H19.4308V234.696L22.0524 215.674L71.5544 197.225L93.2983 183.638L96.3826 109.124H88.0551Z" fill="#BF6F34"/>
<path d="M140.641 166.332L138.945 109.124H88.0549L86.2043 169.908C96.2281 172.625 109.182 174.771 109.182 174.771C109.182 174.771 130.001 171.338 139.253 167.477C139.407 167.477 139.87 167.047 140.641 166.332Z" fill="#B05B1E"/>
<path d="M227 263.3L223.299 234.696L218.21 216.532L212.967 214.387L210.499 211.384L185.209 203.089L183.821 200.085L176.418 194.936L171.946 180.777L164.39 173.626L154.058 167.334L140.641 165.903L141.104 181.349L139.562 195.079L121.056 209.954L116.122 215.674L105.944 209.954L87.4382 195.079L85.896 181.349L86.3587 165.903L72.9422 167.334L62.61 173.626L55.0537 180.777L50.5815 194.936L43.1793 200.085L41.7914 203.089L16.3465 211.384L14.0333 214.387L8.79008 216.532L3.70109 234.696L0 263.3H227Z" fill="#0D3E46"/>
<path d="M158.376 189.502C159.301 188.93 159.301 180.634 159.301 180.634L156.679 170.48C156.679 170.48 157.913 185.354 157.913 186.212C157.913 187.07 137.094 203.804 137.094 203.804L121.673 215.674L136.478 207.951C136.478 207.951 157.605 190.074 158.376 189.502ZM179.503 208.523L167.937 213.529L140.024 220.394L128.613 224.399L126.145 222.11L126.916 218.678L123.37 218.964C123.37 218.964 122.907 219.965 122.598 220.823H122.444L122.29 219.679L115.813 215.531L120.902 221.395L118.589 222.253V221.824L114.888 221.252L113.808 224.685H113.963L104.71 231.836L99.6209 245.136L106.869 249.713L112.421 242.705L113.037 232.408L116.893 225.4L111.033 232.551L110.57 241.847L106.252 246.853L102.243 243.849L106.56 231.693L114.117 224.685L117.355 225.257L117.047 241.132L121.519 258.008L125.066 256.149L118.589 240.56L117.972 225.4L118.126 223.826L120.131 223.254L121.365 226.83L118.897 227.688L121.519 227.116L124.295 235.125L127.533 260.726L132.622 260.154L126.608 241.275L125.22 233.838L122.444 226.973H122.598L124.757 226.544L125.991 228.546L128.921 248.712L134.473 250.428L137.711 244.278L132.776 228.975L128.767 225.4L138.945 223.111L166.549 216.818L180.582 210.812L184.437 203.375L183.05 200.371L179.503 208.523ZM123.986 222.11C124.912 222.396 125.991 222.825 125.991 222.825L126.145 222.396L128.15 224.542L125.374 225.543L123.215 222.396L123.986 222.11ZM122.907 226.401L121.519 222.968L121.827 222.825L122.907 226.401ZM123.215 226.258L122.753 222.539L123.061 222.396L125.066 225.686L123.215 226.258ZM132.16 228.832L137.094 243.849L134.319 248.569L130.618 246.996L127.533 228.689L125.683 225.972L128.767 225.257L132.16 228.832ZM159.918 206.95L176.418 195.079L173.488 187.356C173.488 187.356 159.455 203.089 159.301 203.947C158.993 204.805 140.95 209.954 140.95 209.954L126.916 218.821L141.104 212.242L159.918 206.95ZM212.35 217.105L203.406 236.412L200.476 262.871L205.565 236.984L215.126 217.677L212.35 217.105ZM94.9946 223.254L70.4749 217.248L55.0537 199.084L57.3668 187.356L61.5306 194.793L80.8071 211.241L102.705 214.387C102.705 214.387 85.7418 209.811 84.6624 209.811C83.5829 209.811 66.1569 193.792 66.1569 193.792L66.4653 176.63L82.6576 168.478L85.2792 166.046L72.9422 167.334L62.61 173.769L54.8994 180.92L50.4273 195.079L43.0251 200.228L41.6372 203.232L16.3465 211.384L14.0333 214.387L8.79008 216.532L3.70109 234.696L0 263.3H12.7996L15.5754 226.115L19.5849 224.399L26.5245 233.552C26.5245 233.552 34.235 262.299 34.5435 261.441C34.8519 260.583 28.0666 232.694 28.0666 232.694L21.127 223.254L23.286 220.68L47.1889 214.673L62.61 221.109L84.0455 225.4L107.023 226.544L94.9946 223.254ZM78.4939 173.769L76.9518 184.496L87.4382 195.079L85.896 181.349L86.2045 168.621L78.4939 173.769ZM146.964 186.212L149.586 173.34L142.338 167.62L141.567 165.903L140.641 165.76L141.104 181.206L139.562 194.936L146.964 186.212Z" fill="#053037"/>
<path d="M185.825 204.662L210.037 212.385L210.962 216.246L204.177 231.693L206.644 214.673L183.666 206.95L185.825 204.662ZM213.584 223.54L217.285 218.106L220.986 235.125L223.145 261.584L217.593 235.125L213.584 223.54ZM148.044 168.907L152.361 174.628L148.66 188.93L141.258 195.938L120.748 212.957L143.88 196.653L156.063 185.497L155.137 173.197L148.044 168.907ZM75.5639 175.343L74.6386 186.641L86.6672 199.513L105.635 211.813L115.659 216.818L102.705 212.957L82.6577 202.087L69.7039 187.499L72.6339 177.059L75.5639 175.343Z" fill="#184D55"/>
<path d="M63.0728 94.8223L58.4464 84.5249L44.2589 73.0833L38.7073 91.5328L45.9552 109.696L45.3384 117.706L53.049 121.138L62.3017 105.263L63.0728 94.8223Z" fill="#DE9A69"/>
<path d="M41.7915 91.6759L44.7215 79.6622L50.4274 94.8223L49.1937 96.2525L49.8105 104.691C49.8105 104.691 44.7215 101.687 44.7215 100.829C44.7215 99.971 45.1842 91.9619 45.1842 91.9619L46.5721 91.5328L45.1842 85.0969L42.7168 93.8212L43.3336 98.1118L41.7915 91.6759Z" fill="#BF6F34"/>
<path d="M53.9741 108.552L52.8947 91.3898L44.2588 73.0833L58.4463 84.5249L63.0727 94.8223L62.3016 105.263L53.0489 121.138L45.3383 117.706L52.7404 118.135L53.9741 108.552Z" fill="#CF834D"/>
<path d="M163.927 94.8223L168.554 84.5249L182.741 73.0833L188.293 91.5328L181.045 109.696L181.662 117.706L173.951 121.138L164.698 105.263L163.927 94.8223Z" fill="#DE9A69"/>
<path d="M185.209 91.6759L182.279 79.6622L176.573 94.8223L177.806 96.2525L177.19 104.691C177.19 104.691 182.279 101.687 182.279 100.829C182.279 99.971 181.816 91.9619 181.816 91.9619L180.428 91.5328L181.816 85.0969L184.283 93.8212L183.667 98.1118L185.209 91.6759Z" fill="#BF6F34"/>
<path d="M173.026 108.552L174.105 91.3898L182.741 73.0833L168.554 84.5249L163.927 94.8223L164.698 105.263L173.951 121.138L181.662 117.706L174.259 118.135L173.026 108.552Z" fill="#CF834D"/>
<path d="M170.25 35.898C159.918 19.8798 140.95 8.86723 140.95 8.86723C130.155 6.72193 113.5 5.72079 113.5 5.72079C113.5 5.72079 96.8451 6.86495 86.0502 8.86723C86.0502 8.86723 66.928 19.7368 56.75 35.898C56.75 35.898 49.0394 55.9208 48.731 70.0798L49.8104 91.3898C53.2031 111.699 58.1379 127.574 58.1379 127.574C65.6943 141.018 83.4286 157.322 83.4286 157.322C92.8356 161.041 113.5 164.616 113.5 164.616C113.5 164.616 134.319 161.184 143.571 157.322C143.571 157.322 161.151 141.018 168.862 127.574C168.862 127.574 173.797 111.699 177.19 91.3898L178.269 70.2229C177.806 56.0639 170.25 35.898 170.25 35.898Z" fill="#DE9A69"/>
<path d="M100.855 151.458L114.117 148.598L125.991 151.458L113.963 145.451L100.855 151.458Z" fill="#D68E5B"/>
<path d="M64.3064 126.001C61.9932 118.564 56.75 92.1049 56.75 92.1049L55.9789 68.5066C56.75 61.0696 63.5353 36.3271 63.5353 36.3271C66.928 31.3214 88.2092 14.445 88.2092 14.445L113.654 9.86837L140.95 8.86723C130.155 6.72193 113.5 5.72079 113.5 5.72079C113.5 5.72079 96.8451 6.86495 86.0502 8.86723C86.0502 8.86723 66.928 19.7368 56.75 35.898C56.75 35.898 49.0394 55.9208 48.731 70.0798L49.8104 91.3898C53.2031 111.699 58.1379 127.574 58.1379 127.574C65.6943 141.018 83.4286 157.322 83.4286 157.322C92.8356 161.041 113.5 164.616 113.5 164.616C113.5 164.616 86.8213 156.75 85.2792 155.32C83.7371 153.89 64.3064 126.001 64.3064 126.001Z" fill="#BF6F34"/>
<path d="M92.0955 136.684L108.288 133.709L114.302 136.613L119.437 133.481L137.619 136.741L125.205 147.554L114.425 149.871L104.402 147.668L92.0955 136.684Z" fill="#C37063"/>
<path d="M90.3528 136.384L114.302 140.918L139.886 136.384L114.055 139.759L90.3528 136.384Z" fill="#B45849"/>
<path d="M101.163 92.8201L94.5321 87.3853C94.5321 87.3853 75.1014 86.3842 74.6388 86.3842C74.1761 86.3842 65.0776 92.248 65.5402 92.391C65.8487 92.677 75.2556 96.5386 78.9567 97.2537C78.9567 97.2537 84.6625 97.2537 90.5226 96.1095C94.6863 95.2514 99.0042 93.6782 101.163 92.8201Z" fill="white"/>
<path d="M86.6518 98.1547L79.0029 95.5517L77.5996 88.1004L83.8606 83.252L91.5095 85.855L92.9129 93.3063L86.6518 98.1547Z" fill="#1E0604"/>
<path d="M81.0847 91.9619L81.9946 87.986L86.1737 86.7274L89.4276 89.4448L88.5177 93.4207L84.3386 94.6793L81.0847 91.9619Z" fill="black"/>
<path d="M80.9304 87.2136L83.953 89.9024L84.8011 89.3447L83.1048 85.8693L80.9304 87.2136Z" fill="white"/>
<path d="M86.4976 93.2777L87.2224 94.5077L88.4252 94.0643L87.8238 92.7056L86.4976 93.2777Z" fill="white"/>
<path d="M64.1521 83.8098V99.685L76.0264 110.984H92.8355L104.71 99.685V83.8098L92.8355 72.5112H76.0264L64.1521 83.8098ZM65.54 92.534C65.2316 92.2479 74.3301 86.5271 74.6385 86.5271C74.9469 86.5271 94.5318 87.5283 94.5318 87.5283L101.163 92.963C99.004 93.8212 94.6861 95.3944 90.3681 96.2525C84.5081 97.3967 78.8022 97.3967 78.8022 97.3967C75.2554 96.6816 66.0026 92.677 65.54 92.534Z" fill="#DE9A69"/>
<path d="M101.626 91.5329L95.6116 83.9528L78.8025 83.8098L75.2556 85.669L80.653 84.5249L94.9947 85.24L101.626 91.5329Z" fill="#CF834D"/>
<path d="M63.3812 94.1072L66.157 93.8212L61.3765 92.1049L64.6149 91.5329L65.386 91.1038L63.5354 90.6747L66.157 90.5317L68.0076 89.3876L65.0776 88.8155L68.7786 88.9585L70.6292 87.8143L68.6244 87.2422L71.4002 87.3853L72.4797 86.6702L71.246 86.2411H73.2508L73.7134 86.0981L94.6863 86.8132L102.243 92.9631L101.009 92.82L94.3778 87.6713L74.9471 87.0992L67.8534 92.248L78.8024 97.3967L76.0266 97.1106L74.6387 96.5386H71.7087L73.405 96.1095L70.9376 95.3944L67.0823 95.2514L69.3955 94.8223L67.3907 94.1072H63.3812Z" fill="black"/>
<path d="M125.837 92.8201L132.468 87.3853C132.468 87.3853 151.899 86.3842 152.361 86.3842C152.824 86.3842 161.923 92.248 161.46 92.391C161.151 92.677 151.745 96.5386 148.043 97.2537C148.043 97.2537 142.338 97.2537 136.478 96.1095C132.314 95.2514 127.996 93.6782 125.837 92.8201Z" fill="white"/>
<path d="M143.139 98.1547L135.49 95.5517L134.087 88.1004L140.348 83.252L147.997 85.855L149.4 93.3063L143.139 98.1547Z" fill="#1E0604"/>
<path d="M137.573 91.9619L138.482 87.986L142.662 86.7274L145.915 89.4448L145.006 93.4207L140.826 94.6793L137.573 91.9619Z" fill="black"/>
<path d="M137.418 87.2136L140.441 89.9024L141.289 89.3447L139.593 85.8693L137.418 87.2136Z" fill="white"/>
<path d="M142.985 93.2777L143.71 94.5077L144.913 94.0643L144.312 92.7056L142.985 93.2777Z" fill="white"/>
<path d="M150.973 72.5112H134.164L122.29 83.8098V99.685L134.164 110.984H150.973L162.848 99.685V83.8098L150.973 72.5112ZM148.043 97.2536C148.043 97.2536 142.338 97.2536 136.478 96.1095C132.314 95.2514 127.996 93.6781 125.683 92.82L132.314 87.3853C132.314 87.3853 151.745 86.3841 152.207 86.3841C152.516 86.3841 161.768 92.2479 161.306 92.391C160.997 92.677 151.745 96.6816 148.043 97.2536Z" fill="#DE9A69"/>
<path d="M125.374 91.5329L131.389 83.9528L148.198 83.8098L151.745 85.669L146.347 84.5249L132.005 85.24L125.374 91.5329Z" fill="#CF834D"/>
<path d="M163.619 94.1072L160.843 93.8212L165.623 92.1049L162.385 91.5329L161.614 91.1038L163.465 90.6747L160.843 90.5317L158.992 89.3876L161.922 88.8155L158.221 88.9585L156.371 87.8143L158.376 87.2422L155.6 87.3853L154.52 86.6702L155.754 86.2411H153.749L153.287 86.0981L132.314 86.8132L124.757 92.9631L125.991 92.82L132.622 87.6713L152.053 87.0992L159.147 92.248L148.043 97.2537L150.973 97.1106L152.361 96.5386H155.291L153.595 96.1095L156.062 95.3944L159.918 95.2514L157.604 94.8223L159.609 94.1072H163.619Z" fill="black"/>
<path d="M101.242 70.1034L99.67 75.4738L76.3721 73.5943L64.5205 78.5851L72.0269 69.99L76.4006 68.3492L101.242 70.1034Z" fill="#2A232B"/>
<path d="M90.9061 69.4427L93.1421 69.6326L94.6451 73.1534L90.9061 69.4427ZM76.4007 68.3492L81.9785 72.6105L74.4882 68.9759L76.4007 68.3492ZM86.5856 69.0364L88.9896 73.1269L84.0465 68.8998L86.5856 69.0364ZM68.7182 73.7729L71.5971 73.2677L67.8295 74.8022L68.7182 73.7729ZM89.6079 69.2339L90.2263 70.7265L88.0353 69.2187L89.6079 69.2339ZM72.027 69.99L76.368 71.2661L71.2899 70.9927L72.027 69.99ZM96.619 69.7503L98.2654 73.9737L93.7769 69.6668L96.619 69.7503Z" fill="#3A353A"/>
<path d="M125.758 70.1034L127.33 75.4739L150.628 73.5943L162.479 78.5851L154.973 69.99L150.599 68.3492L125.758 70.1034Z" fill="#2A232B"/>
<path d="M136.094 69.4427L133.858 69.6326L132.355 73.1533L136.094 69.4427ZM150.599 68.3492L145.021 72.6105L152.512 68.9759L150.599 68.3492ZM140.414 69.0364L138.01 73.1269L142.953 68.8998L140.414 69.0364ZM158.282 73.7729L155.403 73.2677L159.17 74.8022L158.282 73.7729ZM137.392 69.2339L136.774 70.7265L138.842 69.0516L137.392 69.2339ZM154.973 69.99L150.632 71.2661L155.71 70.9927L154.973 69.99ZM130.381 69.7503L128.735 73.9737L133.223 69.6668L130.381 69.7503Z" fill="#3A353A"/>
<path d="M118.666 106.178L117.432 105.735L125.39 118.564L122.922 121.825L120.794 120.466L121.133 119.007L119.453 119.679L116.985 124.184L113.747 124.299L109.891 124.184L107.424 119.679L105.759 119.007L106.082 120.466L103.954 121.825L101.502 118.564L109.444 105.735L109.953 90.3458L108.211 106.178L100.161 118.778L104.078 123.512L107.424 121.252L109.336 125.2H117.556L119.453 121.252L122.814 123.512L126.731 118.778L118.666 106.178Z" fill="#BF6F34"/>
<path d="M109.29 119.15L111.295 120.022L116.014 120.137L118.373 119.15L117.479 115.789L115.967 111.355L112.837 117.176L109.29 119.15Z" fill="#E6A678"/>
<path d="M187.368 113.272L181.97 47.0536L166.086 18.8786L144.342 3.14644L128.459 0.143018L113.192 4.14758L98.0789 0L77.5687 3.00342L53.6658 27.6029L41.9457 63.6439L39.1699 134.725L43.6421 178.489L46.8805 182.351L42.5626 145.022L49.3479 183.495L62.4559 187.642L55.5164 151.601L65.6944 187.785L78.0313 189.645L67.0823 136.012L62.4559 71.367L78.1855 29.1761L92.2188 24.3134L115.196 31.6074L136.169 24.0274L150.048 31.7505L163.773 70.938L164.39 129.862L160.381 190.36L165.315 188.071L173.18 165.331L169.016 188.5L177.19 184.782L179.349 152.459L181.353 183.924L189.218 176.773L187.368 113.272Z" fill="#2A232B"/>
<path d="M84.6622 19.0217L74.0216 28.1749L60.4509 70.2229L65.3857 111.699L62.3015 71.51L77.8769 29.3191L91.756 24.3134L114.734 31.6074L103.784 25.6006L84.6622 19.0217ZM152.207 27.0308L132.776 17.8775L121.982 26.6017L114.734 31.6074L135.706 24.0274L149.585 31.6074L163.465 70.7949L163.927 103.117L166.395 66.2183L152.207 27.0308ZM112.266 23.4553L83.1201 12.2997L64.4605 27.3168L55.9788 72.3682L62.7641 155.177L68.47 182.494L60.6052 153.604L52.4319 69.7938L62.3015 25.0285L83.5827 9.58233L112.266 23.4553ZM111.341 20.1658L125.837 9.2963L152.824 16.4473L172.717 46.3385L175.493 77.9459L174.722 144.736L172.871 161.899V142.162L171.792 71.7961L168.554 45.4804L150.819 18.1635L125.837 11.5846L111.341 20.1658ZM43.6418 71.7961L47.1887 137.585L55.9788 176.058L44.7213 135.583L43.6418 71.7961ZM181.816 80.6633L185.054 148.455L184.437 174.771L187.676 147.168L181.816 80.6633Z" fill="#3A353A"/>
<path d="M111.958 25.0285L125.837 13.5869L150.974 19.4507L167.937 46.7676L171.792 71.7961L167.166 143.449L168.245 69.7938L164.39 46.7676L147.427 21.167L126.454 16.5903L111.958 25.0285ZM106.252 23.7413L84.6624 14.8741L66.9281 28.0319L55.979 72.3682L63.8438 133.867L58.909 71.7961L70.6291 28.747L86.513 18.5926L106.252 23.7413Z" fill="#221B23"/>
<path d="M110.57 12.8718L84.3539 5.57778L65.54 19.0217L85.4334 8.15214L110.57 12.8718ZM113.346 11.8707L128.921 4.00456L149.894 10.8695L128.613 7.58006L113.346 11.8707ZM111.958 7.00798L98.5414 2.71738L91.4476 3.71852L111.958 7.00798ZM50.273 50.6291L46.4177 66.3613L50.7357 135.011L54.8994 150.314L53.5115 132.58L49.6562 65.2172L50.273 50.6291ZM176.573 63.787L179.04 109.124L177.961 145.308L181.507 107.837L176.573 63.787Z" fill="#322C33"/>
</svg>
