<?xml version="1.0" standalone="no"?>
<!DOCTYPE svg PUBLIC "-//W3C//DTD SVG 20010904//EN"
 "http://www.w3.org/TR/2001/REC-SVG-20010904/DTD/svg10.dtd">
<svg version="1.0" xmlns="http://www.w3.org/2000/svg"
 width="294.000000pt" height="294.000000pt" viewBox="0 0 294.000000 294.000000"
 preserveAspectRatio="xMidYMid meet">
<metadata>
Created by potrace 1.14, written by Peter Selinger 2001-2017
</metadata>
<g transform="translate(0.000000,294.000000) scale(0.100000,-0.100000)"
fill="#000000" stroke="none">
<path d="M1195 2928 c-67 -10 -112 -16 -136 -17 -8 -1 -42 -26 -75 -57 -160
-153 -223 -214 -228 -223 -4 -6 -37 -97 -75 -204 -66 -188 -69 -198 -74 -313
-3 -65 -12 -137 -20 -159 -12 -33 -13 -44 -2 -65 8 -16 11 -52 8 -100 -8 -147
-8 -406 0 -480 12 -122 17 -163 22 -195 2 -16 7 -59 11 -95 4 -42 14 -74 26
-90 l20 -25 -6 50 c-13 97 -16 121 -22 175 -10 90 2 54 30 -88 28 -145 30
-152 51 -152 24 0 26 -16 8 -70 -13 -42 -25 -57 -57 -78 -22 -14 -48 -35 -58
-47 -10 -12 -34 -27 -55 -33 -137 -37 -251 -76 -268 -93 -12 -10 -34 -23 -51
-29 -26 -9 -32 -20 -52 -88 -30 -98 -39 -136 -47 -192 -3 -25 -10 -72 -15
-105 -5 -33 -11 -80 -14 -105 l-6 -45 1355 1 c746 1 1358 4 1361 7 3 3 1 31
-5 63 -5 33 -12 79 -16 104 -14 111 -24 168 -38 210 -8 25 -20 64 -27 88 -10
31 -22 48 -44 59 -17 8 -40 23 -51 33 -11 10 -87 38 -170 64 -82 25 -152 51
-154 57 -4 13 -23 30 -70 61 -19 13 -34 28 -34 33 1 6 -5 24 -12 42 -13 32
-13 33 22 54 20 12 43 22 52 22 9 0 34 15 57 33 l40 32 -2 79 c-13 499 -18
628 -28 738 -5 50 -3 81 7 104 12 29 11 39 -10 102 -12 38 -25 105 -28 151 -3
46 -7 99 -10 118 -2 19 -7 64 -11 100 -5 46 -14 77 -34 105 -14 22 -29 47 -33
55 -3 8 -34 60 -69 114 -62 98 -65 100 -192 186 -123 82 -133 88 -210 100 -45
7 -89 14 -98 16 -9 1 -41 -4 -70 -12 -120 -32 -117 -32 -222 -5 -86 23 -84 23
-171 9z"/>
</g>
</svg>
