<svg width="38" height="33" viewBox="0 0 38 33" fill="none" xmlns="http://www.w3.org/2000/svg">
<path d="M7.79978 19.8002H17.3997C18.6129 19.8002 19.5997 18.9431 19.5997 17.8897V15.1107C19.5997 14.0573 18.6129 13.2002 17.3997 13.2002H7.79978C6.58675 13.2002 5.59979 14.0573 5.59979 15.1107V17.8897C5.59979 18.9431 6.58675 19.8002 7.79978 19.8002ZM6.79983 15.1107C6.79983 14.6318 7.24841 14.2423 7.79986 14.2423H17.3998C17.9513 14.2423 18.3998 14.6318 18.3998 15.1107V17.8897C18.3998 18.3686 17.9513 18.7581 17.3998 18.7581H7.79978C7.24834 18.7581 6.79976 18.3686 6.79976 17.8897V15.1107H6.79983Z" fill="#039423"/>
<path d="M37.8243 30.7211L36.2243 29.3316C35.99 29.1282 35.6101 29.1282 35.3757 29.3316C35.1414 29.5351 35.1414 29.8649 35.3757 30.0685L35.9515 30.5684H3.79998C3.24853 30.5684 2.79996 30.1789 2.79996 29.7V1.77897L3.37574 2.279C3.60998 2.48241 3.9899 2.48241 4.22421 2.279C4.45852 2.07552 4.45852 1.74565 4.22421 1.54211L2.62421 0.152561C2.38997 -0.0508535 2.01005 -0.0508535 1.77574 0.152561L0.175731 1.54204C-0.0585771 1.74552 -0.0585771 2.07539 0.175731 2.27893C0.409966 2.48235 0.789891 2.48235 1.0242 2.27893L1.59999 1.77891V29.7C1.59999 30.7534 2.58695 31.6105 3.79998 31.6106H35.9514L35.3756 32.1105C35.1413 32.314 35.1413 32.6439 35.3756 32.8474C35.4928 32.9491 35.6464 33 35.7999 33C35.9534 33 36.107 32.9491 36.2242 32.8474L37.8242 31.458C38.0586 31.2544 38.0586 30.9245 37.8243 30.7211Z" fill="#039423"/>
<path d="M7.79978 11.4633H35.7998C37.0128 11.4633 37.9997 10.6062 37.9997 9.55276V6.7738C37.9997 5.72038 37.0128 4.86328 35.7998 4.86328H7.79978C6.58675 4.86328 5.59979 5.72038 5.59979 6.7738V9.55276C5.59979 10.6062 6.58675 11.4633 7.79978 11.4633ZM6.79983 6.7738C6.79983 6.29491 7.24849 5.90536 7.79986 5.90536H35.7998C36.3513 5.90536 36.7999 6.29491 36.7999 6.7738V9.55276C36.7999 10.0316 36.3513 10.4212 35.7998 10.4212H7.79978C7.24834 10.4212 6.79976 10.0316 6.79976 9.55276V6.7738H6.79983Z" fill="#039423"/>
<path d="M7.79978 28.1371H26.1998C27.4128 28.1371 28.3998 27.28 28.3998 26.2266V23.4476C28.3998 22.3942 27.4128 21.5371 26.1998 21.5371H7.79978C6.58675 21.5371 5.59979 22.3942 5.59979 23.4476V26.2266C5.59979 27.28 6.58675 28.1371 7.79978 28.1371ZM6.79983 23.4476C6.79983 22.9687 7.24841 22.5792 7.79986 22.5792H26.1998C26.7512 22.5792 27.1998 22.9687 27.1998 23.4476V26.2266C27.1998 26.7055 26.7512 27.095 26.1998 27.095H7.79978C7.24834 27.095 6.79976 26.7055 6.79976 26.2266V23.4476H6.79983Z" fill="#039423"/>
</svg>
