<svg width="123" height="109" viewBox="0 0 123 109" fill="none" xmlns="http://www.w3.org/2000/svg">
<path fill-rule="evenodd" clip-rule="evenodd" d="M51.4744 93.8851C64.3744 106.325 82.6144 110.085 100.854 102.315L116.164 108.315L111.094 96.2551C128.094 82.6251 125.094 63.9051 112.534 51.1451C111.7 56.012 110.054 60.7041 107.664 65.0251C104.147 71.2852 99.3535 76.7364 93.5944 81.0251C87.6836 85.4942 81.0272 88.8799 73.9344 91.0251C66.6531 93.1968 59.0685 94.1762 51.4744 93.9251V93.8851ZM31.5944 54.0951C30.8014 54.0501 30.0556 53.7034 29.5101 53.126C28.9646 52.5486 28.6607 51.7844 28.6607 50.9901C28.6607 50.1958 28.9646 49.4316 29.5101 48.8543C30.0556 48.2769 30.8014 47.9302 31.5944 47.8851H61.5244C62.3174 47.9302 63.0632 48.2769 63.6087 48.8543C64.1542 49.4316 64.4581 50.1958 64.4581 50.9901C64.4581 51.7844 64.1542 52.5486 63.6087 53.126C63.0632 53.7034 62.3174 54.0501 61.5244 54.0951H31.5944ZM31.5944 36.8751C30.8014 36.8301 30.0556 36.4834 29.5101 35.906C28.9646 35.3286 28.6607 34.5644 28.6607 33.7701C28.6607 32.9758 28.9646 32.2116 29.5101 31.6343C30.0556 31.0569 30.8014 30.7102 31.5944 30.6651H74.3544C75.1474 30.7102 75.8932 31.0569 76.4387 31.6343C76.9842 32.2116 77.2881 32.9758 77.2881 33.7701C77.2881 34.5644 76.9842 35.3286 76.4387 35.906C75.8932 36.4834 75.1474 36.8301 74.3544 36.8751H31.5944ZM54.2944 0.0251318C68.8244 0.495132 81.8144 5.64513 91.1044 13.6151C100.594 21.7451 106.274 32.8151 105.924 44.8851C105.554 57.0251 99.2044 67.7351 89.2344 75.3051C79.4544 82.7251 66.1644 87.0951 51.6744 86.6751C47.7527 86.564 43.8496 86.092 40.0144 85.2651C36.645 84.548 33.343 83.5444 30.1444 82.2651L6.7044 91.4651L14.5344 72.8351C10.1975 69.1229 6.62443 64.6022 4.0144 59.5251C1.21761 54.0504 -0.15788 47.9604 0.0144048 41.8151C0.394405 29.7251 6.7444 19.0251 16.7144 11.4251C26.4944 4.02513 39.7944 -0.374868 54.2744 0.0251318H54.2944ZM54.1444 6.20513H54.0944C41.0144 5.85513 29.1544 9.74513 20.4544 16.3451C11.9344 22.8051 6.5144 31.8651 6.2144 42.0251C6.08119 47.1317 7.23312 52.1898 9.56441 56.7351C12.1413 61.7056 15.7644 66.0587 20.1844 69.4951L22.0144 70.9551L18.0944 80.3251L30.1744 75.5751L31.3444 76.0751C34.5417 77.4285 37.8598 78.4765 41.2544 79.2051C44.7378 79.9567 48.2825 80.3885 51.8444 80.4951C64.8444 80.8751 76.8444 76.9851 85.5044 70.3751C94.0144 63.9151 99.4344 54.8651 99.7444 44.7451C100.034 34.6351 95.1844 25.2951 87.0844 18.3451C78.8044 11.2151 67.1744 6.63513 54.1644 6.23513L54.1444 6.20513Z" fill="#FF5656"/>
</svg>
